<?xml version="1.0" encoding="utf-8"?>
<!-- Generator: Adobe Illustrator 24.0.1, SVG Export Plug-In . SVG Version: 6.00 Build 0)  -->
<svg version="1.1" id="Layer_1" xmlns="http://www.w3.org/2000/svg" xmlns:xlink="http://www.w3.org/1999/xlink" x="0px" y="0px"
	 viewBox="0 0 1600 500" style="enable-background:new 0 0 1600 500;" xml:space="preserve">
<style type="text/css">
	.st0{fill:url(#flying-star-bottom_2_);}
	.st1{fill:url(#flying-star-top_2_);}
	.st2{opacity:0.5;fill:#6F7295;}
	.st3{opacity:0.5;fill:#A1A7D1;}
	.st4{opacity:0.5;fill:#9BD0F9;}
	.st5{opacity:0.7;fill:#9BD0F9;}
	.st6{opacity:0.4;fill:#9BD0F9;}
	.st7{fill:url(#SVGID_1_);}
	.st8{fill:url(#SVGID_2_);}
	.st9{fill:url(#SVGID_3_);}
	.st10{fill:url(#SVGID_4_);}
	.st11{fill:url(#SVGID_5_);}
	.st12{fill:url(#SVGID_6_);}
	.st13{fill:url(#SVGID_7_);}
	.st14{fill:url(#SVGID_8_);}
	.st15{fill:url(#SVGID_9_);}
	.st16{fill:url(#SVGID_10_);}
	.st17{fill:url(#SVGID_11_);}
	.st18{fill:url(#SVGID_12_);}
	.st19{fill:#FBE666;}
	.st20{opacity:0.5;fill:#DFE3CB;}
	.st21{fill:#DFE3CB;}
	.st22{opacity:0.5;fill:#60637A;}
	.st23{fill:#60637A;}
	.st24{fill:#E0E1EA;}
	.st25{fill:#CBCCDA;}
	.st26{fill:url(#top-right-clouds_1_);}
	.st27{fill:url(#middle-right-clouds_2_);}
	.st28{fill:url(#bottom-right-clouds_2_);}
	.st29{fill:url(#top-left-clouds_2_);}
	.st30{fill:url(#bottom-left-clouds_2_);}
	.st31{fill:url(#top-right-clouds_3_);}
	.st32{fill:url(#middle-right-clouds_3_);}
	.st33{fill:url(#bottom-right-clouds_3_);}
	.st34{fill:url(#top-left-clouds_3_);}
	.st35{fill:#4A5481;}
</style>
<linearGradient id="flying-star-bottom_2_" gradientUnits="userSpaceOnUse" x1="-153.6538" y1="450.0753" x2="-91.6538" y2="450.0753" gradientTransform="matrix(0.9062 -0.4228 0.4228 0.9062 -113.1964 4.7019)">
	<stop  offset="4.960318e-04" style="stop-color:#144079"/>
	<stop  offset="0.2046" style="stop-color:#17427B"/>
	<stop  offset="0.3428" style="stop-color:#204A80"/>
	<stop  offset="0.4614" style="stop-color:#2F5688"/>
	<stop  offset="0.569" style="stop-color:#446795"/>
	<stop  offset="0.6692" style="stop-color:#607EA5"/>
	<stop  offset="0.7639" style="stop-color:#839AB8"/>
	<stop  offset="0.8544" style="stop-color:#ABBBCF"/>
	<stop  offset="0.9391" style="stop-color:#D9E0E9"/>
	<stop  offset="1" style="stop-color:#FFFFFF"/>
</linearGradient>
<path id="flying-star-bottom_1_" class="st0" d="M-5.908,451.392c3.97,8.508,0.291,18.624-8.217,22.594
	c-8.508,3.97-43.997,12.131-47.967,3.622s24.553-31.889,33.591-34.433C-19,440.5-9.878,442.884-5.908,451.392z"/>
<linearGradient id="flying-star-top_2_" gradientUnits="userSpaceOnUse" x1="-102.0734" y1="243.349" x2="-39.8941" y2="243.349" gradientTransform="matrix(0.9602 -0.2793 0.2793 0.9602 -42.8739 -3.8655)">
	<stop  offset="4.960318e-04" style="stop-color:#144079"/>
	<stop  offset="0.2046" style="stop-color:#17427B"/>
	<stop  offset="0.3428" style="stop-color:#204A80"/>
	<stop  offset="0.4614" style="stop-color:#2F5688"/>
	<stop  offset="0.569" style="stop-color:#446795"/>
	<stop  offset="0.6692" style="stop-color:#607EA5"/>
	<stop  offset="0.7639" style="stop-color:#839AB8"/>
	<stop  offset="0.8544" style="stop-color:#ABBBCF"/>
	<stop  offset="0.9391" style="stop-color:#D9E0E9"/>
	<stop  offset="1" style="stop-color:#FFFFFF"/>
</linearGradient>
<path id="flying-star-top_1_" class="st1" d="M-13.234,240.841c2.623,9.015-2.766,16.659-11.575,21.072
	c-7.381,3.697-29.191,6.587-43.36,5.274c-2.956-0.274-3.961-4.276-2.453-6.833C-62.944,247.34-51,232.5-34.306,229.266
	C-25.088,227.48-15.857,231.826-13.234,240.841z"/>
<g id="stars">
	<circle class="st2" cx="926.42" cy="111.689" r="17.114"/>
	<circle class="st3" cx="926.421" cy="111.689" r="7.087"/>
	<circle class="st2" cx="128.102" cy="61.596" r="17.114"/>
	<circle class="st3" cx="128.103" cy="61.597" r="7.087"/>
	<circle class="st2" cx="1025.03" cy="178.544" r="22.968"/>
	<circle class="st3" cx="1025.03" cy="178.544" r="9.511"/>
	<circle class="st2" cx="1129.356" cy="77.897" r="17.114"/>
	<circle class="st3" cx="1129.357" cy="77.898" r="7.087"/>
	<circle class="st2" cx="1174.819" cy="330.655" r="17.114"/>
	<circle class="st3" cx="1174.819" cy="330.656" r="7.087"/>
	<circle class="st2" cx="1157.961" cy="208.388" r="11.278"/>
	<circle class="st3" cx="1157.961" cy="208.388" r="4.67"/>
	<circle class="st2" cx="414.01" cy="134.464" r="17.114"/>
	<circle class="st3" cx="414.01" cy="134.465" r="7.087"/>
	<circle class="st2" cx="557.696" cy="112.179" r="11.943"/>
	<circle class="st3" cx="557.696" cy="112.18" r="4.945"/>
	<circle class="st2" cx="688.013" cy="36.197" r="11.943"/>
	<circle class="st3" cx="688.013" cy="36.197" r="4.945"/>
	<circle class="st2" cx="712.216" cy="174.683" r="15.325"/>
	<circle class="st3" cx="712.216" cy="174.684" r="6.346"/>
</g>
<g id="sun-highlight-balls">
	<circle class="st4" cx="319.935" cy="184.898" r="12.377"/>
	<circle class="st5" cx="333.094" cy="204.841" r="17.019"/>
	<circle class="st6" cx="362" cy="344.5" r="87"/>
	<circle class="st6" cx="449" cy="31.5" r="36"/>
	<circle class="st6" cx="404" cy="49.5" r="26"/>
</g>
<g id="sun">
	<g id="rays">
		<linearGradient id="SVGID_1_" gradientUnits="userSpaceOnUse" x1="157" y1="24.4258" x2="157" y2="-130.5">
			<stop  offset="0" style="stop-color:#DFE3CB;stop-opacity:0.4"/>
			<stop  offset="1" style="stop-color:#DFE3CB;stop-opacity:0"/>
		</linearGradient>
		<path class="st7" d="M168.943,24.426L157.159-130.5h-0.317L145.057,24.426C148.95,23.82,152.937,23.5,157,23.5
			S165.05,23.82,168.943,24.426z"/>
		<linearGradient id="SVGID_2_" gradientUnits="userSpaceOnUse" x1="94.112" y1="38.6324" x2="94.112" y2="-64.11">
			<stop  offset="0" style="stop-color:#DFE3CB;stop-opacity:0.4"/>
			<stop  offset="1" style="stop-color:#DFE3CB;stop-opacity:0"/>
		</linearGradient>
		<path class="st8" d="M62.113-64.11l-0.226,0.13l49.274,102.612c4.678-3.472,9.767-6.418,15.176-8.769L62.113-64.11z"/>
		<linearGradient id="SVGID_3_" gradientUnits="userSpaceOnUse" x1="26.9873" y1="72.8091" x2="26.9873" y2="-15.1373">
			<stop  offset="0" style="stop-color:#DFE3CB;stop-opacity:0.4"/>
			<stop  offset="1" style="stop-color:#DFE3CB;stop-opacity:0"/>
		</linearGradient>
		<path class="st9" d="M-42.973-15.137l-0.159,0.274L85.152,72.809c2.907-7.538,6.959-14.504,11.954-20.681L-42.973-15.137z"/>
		<linearGradient id="SVGID_4_" gradientUnits="userSpaceOnUse" x1="23.7554" y1="109.2643" x2="23.7554" y2="91.7356">
			<stop  offset="0" style="stop-color:#DFE3CB;stop-opacity:0.4"/>
			<stop  offset="1" style="stop-color:#DFE3CB;stop-opacity:0"/>
		</linearGradient>
		<path class="st10" d="M80.511,91.736L-33,100.37v0.261l113.511,8.634C80.185,106.386,80,103.465,80,100.5
			S80.185,94.614,80.511,91.736z"/>
		<linearGradient id="SVGID_5_" gradientUnits="userSpaceOnUse" x1="26.9873" y1="216.1372" x2="26.9873" y2="128.1909">
			<stop  offset="0" style="stop-color:#DFE3CB;stop-opacity:0.4"/>
			<stop  offset="1" style="stop-color:#DFE3CB;stop-opacity:0"/>
		</linearGradient>
		<path class="st11" d="M-43.131,215.863l0.158,0.274l140.078-67.266c-4.995-6.177-9.047-13.143-11.954-20.681L-43.131,215.863z"/>
		<linearGradient id="SVGID_6_" gradientUnits="userSpaceOnUse" x1="94.112" y1="265.11" x2="94.112" y2="162.3676">
			<stop  offset="0" style="stop-color:#DFE3CB;stop-opacity:0.4"/>
			<stop  offset="1" style="stop-color:#DFE3CB;stop-opacity:0"/>
		</linearGradient>
		<path class="st12" d="M61.887,264.98l0.226,0.13l64.224-93.974c-5.408-2.351-10.497-5.297-15.176-8.769L61.887,264.98z"/>
		<linearGradient id="SVGID_7_" gradientUnits="userSpaceOnUse" x1="157" y1="331.5" x2="157" y2="176.5742">
			<stop  offset="0" style="stop-color:#DFE3CB;stop-opacity:0.4"/>
			<stop  offset="1" style="stop-color:#DFE3CB;stop-opacity:0"/>
		</linearGradient>
		<path class="st13" d="M145.057,176.574L156.841,331.5h0.317l11.784-154.926c-3.893,0.606-7.88,0.926-11.943,0.926
			S148.95,177.18,145.057,176.574z"/>
		<linearGradient id="SVGID_8_" gradientUnits="userSpaceOnUse" x1="219.888" y1="265.11" x2="219.888" y2="162.3676">
			<stop  offset="0" style="stop-color:#DFE3CB;stop-opacity:0.4"/>
			<stop  offset="1" style="stop-color:#DFE3CB;stop-opacity:0"/>
		</linearGradient>
		<path class="st14" d="M251.887,265.11l0.226-0.13l-49.274-102.612c-4.678,3.472-9.767,6.418-15.176,8.769L251.887,265.11z"/>
		<linearGradient id="SVGID_9_" gradientUnits="userSpaceOnUse" x1="287.0127" y1="216.1373" x2="287.0127" y2="128.1909">
			<stop  offset="0" style="stop-color:#DFE3CB;stop-opacity:0.4"/>
			<stop  offset="1" style="stop-color:#DFE3CB;stop-opacity:0"/>
		</linearGradient>
		<path class="st15" d="M216.894,148.872l140.078,67.266l0.159-0.274l-128.283-87.672
			C225.941,135.729,221.889,142.694,216.894,148.872z"/>
		<linearGradient id="SVGID_10_" gradientUnits="userSpaceOnUse" x1="290.2446" y1="109.2644" x2="290.2446" y2="91.7357">
			<stop  offset="0" style="stop-color:#DFE3CB;stop-opacity:0.4"/>
			<stop  offset="1" style="stop-color:#DFE3CB;stop-opacity:0"/>
		</linearGradient>
		<path class="st16" d="M233.489,109.264L347,100.63v-0.261l-113.511-8.634c0.326,2.878,0.511,5.799,0.511,8.764
			S233.815,106.386,233.489,109.264z"/>
		<linearGradient id="SVGID_11_" gradientUnits="userSpaceOnUse" x1="287.0127" y1="72.8091" x2="287.0127" y2="-15.1372">
			<stop  offset="0" style="stop-color:#DFE3CB;stop-opacity:0.4"/>
			<stop  offset="1" style="stop-color:#DFE3CB;stop-opacity:0"/>
		</linearGradient>
		<path class="st17" d="M357.131-14.863l-0.158-0.274L216.894,52.128c4.995,6.177,9.047,13.143,11.954,20.681L357.131-14.863z"/>
		<linearGradient id="SVGID_12_" gradientUnits="userSpaceOnUse" x1="219.888" y1="38.6324" x2="219.888" y2="-64.11">
			<stop  offset="0" style="stop-color:#DFE3CB;stop-opacity:0.4"/>
			<stop  offset="1" style="stop-color:#DFE3CB;stop-opacity:0"/>
		</linearGradient>
		<path class="st18" d="M252.113-63.98l-0.226-0.13l-64.224,93.974c5.408,2.351,10.497,5.297,15.176,8.769L252.113-63.98z"/>
		<path class="st19" d="M233.489,109.264c0.326-2.878,0.511-5.799,0.511-8.764s-0.185-5.886-0.511-8.764
			c-0.748-6.599-2.332-12.941-4.641-18.927c-2.907-7.538-6.959-14.504-11.954-20.681c-4.097-5.067-8.817-9.608-14.056-13.496
			c-4.678-3.472-9.767-6.418-15.176-8.769c-5.895-2.563-12.168-4.417-18.72-5.438C165.05,23.82,161.063,23.5,157,23.5
			s-8.05,0.32-11.943,0.926c-6.552,1.02-12.825,2.875-18.72,5.438c-5.408,2.351-10.497,5.297-15.176,8.769
			c-5.238,3.887-9.958,8.429-14.056,13.496c-4.995,6.177-9.047,13.143-11.954,20.681c-2.309,5.985-3.893,12.327-4.641,18.927
			C80.185,94.614,80,97.535,80,100.5s0.185,5.886,0.511,8.764c0.748,6.599,2.332,12.941,4.641,18.927
			c2.907,7.538,6.959,14.504,11.954,20.681c4.097,5.067,8.817,9.608,14.056,13.496c4.678,3.472,9.767,6.418,15.176,8.769
			c5.895,2.563,12.168,4.417,18.72,5.438c3.893,0.606,7.88,0.926,11.943,0.926s8.05-0.32,11.943-0.926
			c6.552-1.02,12.825-2.875,18.72-5.438c5.408-2.351,10.497-5.297,15.176-8.769c5.238-3.887,9.958-8.429,14.056-13.496
			c4.995-6.177,9.047-13.143,11.954-20.681C231.157,122.206,232.741,115.864,233.489,109.264z"/>
	</g>
	<circle id="outter_1_" class="st20" cx="157" cy="102.5" r="112"/>
	<circle id="middle_1_" class="st21" cx="157" cy="100.5" r="92"/>
	<circle id="inner" class="st19" cx="157" cy="100.5" r="77"/>
</g>
<g id="day-star">
	<polygon class="st20" points="401.995,164.466 408.295,156.726 408.276,156.702 400.534,163.005 399.5,145 399.5,145 
		398.466,163.005 390.736,156.697 390.692,156.732 397.005,164.466 379,165.5 379,165.5 397.005,166.534 390.714,174.286 
		390.714,174.286 398.466,167.995 399.5,186 399.5,186 400.534,167.995 408.368,174.368 408.203,174.204 401.995,166.534 420,165.5 
		420,165.5 	"/>
	<circle class="st20" cx="399.672" cy="165.5" r="4.824"/>
</g>
<g id="day-star-big">
	<polygon class="st20" points="98.742,285.5 117.028,263.034 116.972,262.966 94.5,281.258 91.5,229 91.5,229 88.5,281.258 
		66.064,262.949 65.936,263.051 84.258,285.5 32,288.5 32,288.5 84.258,291.5 66,314 66,314 88.5,295.742 91.5,348 91.5,348 
		94.5,295.742 117.239,314.239 116.761,313.761 98.742,291.5 151,288.5 151,288.5 	"/>
	<circle class="st20" cx="92" cy="288.5" r="14"/>
</g>
<g id="moon">
	<path class="st22" d="M1508.181,135.259c0,66.288-37.869,123.669-93.143,151.816c-23.115,11.762-49.359,18.425-77.098,18.425
		c-94.027,0-170.241-76.214-170.241-170.241c0-5.439,0.272-10.81,0.816-16.113c2.788-30.458,13.666-58.537,30.459-82.197
		c30.798-43.512,81.517-71.931,138.967-71.931c81.585,0,149.776,57.382,166.365,134.003
		C1506.821,110.715,1508.181,122.817,1508.181,135.259z"/>
	<path class="st23" d="M1475.128,135.259c0,53.418-30.517,99.659-75.059,122.341c-18.628,9.478-39.776,14.848-62.129,14.848
		c-75.772,0-137.189-61.417-137.189-137.189c0-4.383,0.219-8.711,0.657-12.985c2.247-24.545,11.012-47.172,24.545-66.238
		c24.819-35.064,65.691-57.966,111.986-57.966c65.745,0,120.697,46.241,134.066,107.987
		C1474.033,115.481,1475.128,125.233,1475.128,135.259z"/>
	<path class="st24" d="M1455.443,135.259c0,45.753-26.138,85.359-64.289,104.786c-15.955,8.118-34.068,12.717-53.214,12.717
		c-64.899,0-117.503-52.604-117.503-117.503c0-3.754,0.188-7.461,0.563-11.121c1.924-21.023,9.432-40.403,21.023-56.734
		c21.257-30.033,56.264-49.648,95.917-49.648c56.311,0,103.378,39.606,114.828,92.491
		C1454.504,118.319,1455.443,126.671,1455.443,135.259z"/>
	<path class="st25" d="M1455.443,135.259c0,45.753-26.138,85.359-64.289,104.786c-1.689-5.584-5.35-11.497-13.092-14.031
		c-25.95-8.541-59.455-17.269-51.384-45.753c3.097-10.887,13.937-20.648,30.267-15.486c10.793,3.426,40.497,17.926,50.258-12.013
		c11.919-36.79,28.202-46.832,45.565-42.515C1454.504,118.319,1455.443,126.671,1455.443,135.259z"/>
	<path class="st25" d="M1221,124.137c1.924-21.023,9.432-40.403,21.023-56.734C1255.35,83.875,1257.227,129.722,1221,124.137z"/>
	<path class="st25" d="M1391.58,133.009c4.591-8.414,2.31-28.462-21.576-30.298c-26.285-2.021-18.823,16.531-12.854,18.362
		c11.476,3.522,11.936,23.412,21.117,23.412C1384.235,144.486,1391.58,133.009,1391.58,133.009z"/>
</g>
<g id="clouds-night-right">
	
		<linearGradient id="top-right-clouds_1_" gradientUnits="userSpaceOnUse" x1="1451.7306" y1="870.4876" x2="1451.7306" y2="547.4981">
		<stop  offset="0" style="stop-color:#99D5FF"/>
		<stop  offset="1" style="stop-color:#1D2150"/>
	</linearGradient>
	<path id="top-right-clouds" class="st26" d="M1591,315.5c-21.974,0-41.892,8.764-56.485,22.97
		c-20.65-47.644-73.088-75.068-125.345-62.593c-52.831,12.613-87.415,61.693-83.445,114.175c-5.426,3.188-10.306,6.797-14.688,10.71
		c-9.333-2.061-19.253-2.121-29.178,0.248c-35.251,8.416-57.005,43.814-48.589,79.065c5.848,24.494,24.728,42.459,47.53,48.326
		c16.609,39.624,55.759,67.46,101.414,67.46c60.706,0,109.918-49.212,109.918-109.918c0-3.724-0.188-7.403-0.549-11.031
		c13.355-8.202,24.612-19.108,33.199-31.792c14.663,20.788,38.846,34.38,66.219,34.38c44.735,0,81-36.265,81-81
		C1672,351.765,1635.735,315.5,1591,315.5z"/>
	<linearGradient id="middle-right-clouds_2_" gradientUnits="userSpaceOnUse" x1="1419.5" y1="766.3625" x2="1419.5" y2="558.3625">
		<stop  offset="0" style="stop-color:#B0DEFE"/>
		<stop  offset="0.1682" style="stop-color:#9DC5E7"/>
		<stop  offset="0.738" style="stop-color:#62749F"/>
		<stop  offset="0.999" style="stop-color:#4A5482"/>
	</linearGradient>
	<path id="middle-right-clouds" class="st27" d="M1474,357.5c-37.555,0-68,30.445-68,68c0,7.043,1.071,13.835,3.058,20.224
		c-11.869-10.11-27.245-16.224-44.058-16.224c-37.555,0-68,30.445-68,68s30.445,68,68,68s68-30.445,68-68
		c0-7.043-1.071-13.835-3.058-20.224c11.869,10.11,27.245,16.224,44.058,16.224c37.555,0,68-30.445,68-68S1511.555,357.5,1474,357.5
		z"/>
	
		<linearGradient id="bottom-right-clouds_2_" gradientUnits="userSpaceOnUse" x1="1455.3145" y1="971.3979" x2="1455.3145" y2="701.0829">
		<stop  offset="0" style="stop-color:#F8FDFF"/>
		<stop  offset="0.2822" style="stop-color:#C7CCDD"/>
		<stop  offset="0.7743" style="stop-color:#767CA6"/>
		<stop  offset="1" style="stop-color:#565C90"/>
	</linearGradient>
	<path id="bottom-right-clouds" class="st28" d="M1631.618,502.809c-8.7-43.384-50.923-71.501-94.307-62.8
		c-26.042,5.223-46.505,22.564-56.883,44.945c-1.901-0.485-3.822-0.91-5.758-1.282c-20.089-15.742-46.069-24.015-73.459-21.166
		c-52.253,5.437-91.163,49.419-91.444,100.77c-24.105,18.1-37.065,49.015-30.742,80.543c8.774,43.752,51.355,72.107,95.108,63.333
		c20.731-4.157,37.932-15.958,49.438-31.824c16.145,5.574,33.931,7.08,51.888,3.479c41.299-8.282,71.42-41.052,78.35-80.165
		c4.956-0.051,9.972-0.515,15.011-1.526C1612.201,588.416,1640.318,546.193,1631.618,502.809z"/>
	
		<linearGradient id="top-left-clouds_2_" gradientUnits="userSpaceOnUse" x1="1053.6731" y1="888.2675" x2="1053.6731" y2="597.2073">
		<stop  offset="0" style="stop-color:#C6E7FD"/>
		<stop  offset="0.3349" style="stop-color:#91A8C8"/>
		<stop  offset="0.7908" style="stop-color:#4E5783"/>
		<stop  offset="1" style="stop-color:#333768"/>
	</linearGradient>
	<path id="top-left-clouds" class="st29" d="M1234.116,414.882c-22.915-0.653-44.032,7.505-60.113,21.396
		c-3.292-73.993-63.204-133.988-138.42-136.131c-42.375-1.207-80.94,16.21-107.897,44.809
		c-13.906-10.163-30.918-16.376-49.436-16.903c-48.665-1.386-89.239,36.941-90.625,85.605s36.941,89.239,85.605,90.625
		c9.687,0.276,19.044-1.045,27.845-3.685c21.601,48.624,69.648,83.154,126.383,84.77c48.766,1.389,92.493-21.878,119.273-58.484
		c10.161,36.145,42.855,63.102,82.365,64.227c48.664,1.386,89.239-36.941,90.625-85.605
		C1321.107,456.843,1282.78,416.268,1234.116,414.882z"/>
	
		<linearGradient id="bottom-left-clouds_2_" gradientUnits="userSpaceOnUse" x1="1039.8325" y1="783.4263" x2="1039.8325" y2="587.0731">
		<stop  offset="0" style="stop-color:#A0D8FD"/>
		<stop  offset="1" style="stop-color:#4A5482"/>
	</linearGradient>
	<path id="bottom-left-clouds_6_" class="st30" d="M1229.873,538.817c-12.006-0.669-23.58,1.12-34.234,4.926
		c0.548-2.486,0.909-5.046,1.056-7.671c1.496-26.844-19.052-49.819-45.897-51.316c-17.778-0.991-33.815,7.72-43.084,21.491
		c0.349-2.442,0.65-4.902,0.789-7.411c2.632-47.214-33.509-87.621-80.723-90.253c-47.214-2.632-87.621,33.509-90.253,80.723
		c-0.045,0.8,0.01,1.581-0.012,2.377c-15.208-24.884-41.972-42.137-73.293-43.883c-50.648-2.823-93.994,35.946-96.817,86.594
		c-2.823,50.647,35.946,93.994,86.594,96.817c50.647,2.823,93.994-35.946,96.817-86.593c0.083-1.494,0.124-2.98,0.136-4.461
		c14.328,22.363,38.755,37.812,67.299,39.403c35.073,1.955,66.356-17.509,81.222-46.991c-0.436,26.009,19.707,47.941,45.907,49.401
		c1.405,0.078,2.793,0.074,4.173,0.03c-6.779,11.583-11.004,24.892-11.802,39.214c-2.686,48.192,34.204,89.438,82.396,92.124
		c48.193,2.686,89.438-34.204,92.124-82.396C1314.955,582.748,1278.065,541.503,1229.873,538.817z"/>
</g>
<g id="clouds-night-left">
	
		<linearGradient id="top-right-clouds_3_" gradientUnits="userSpaceOnUse" x1="644.7307" y1="870.4876" x2="644.7307" y2="547.4981">
		<stop  offset="0" style="stop-color:#99D5FF"/>
		<stop  offset="1" style="stop-color:#1D2150"/>
	</linearGradient>
	<path id="top-right-clouds_2_" class="st31" d="M784,315.5c-21.974,0-41.892,8.764-56.485,22.97
		c-20.65-47.644-73.088-75.068-125.345-62.593c-52.831,12.613-87.415,61.693-83.445,114.175c-5.426,3.188-10.306,6.797-14.688,10.71
		c-9.333-2.061-19.253-2.121-29.178,0.248c-35.251,8.416-57.005,43.814-48.589,79.065c5.848,24.494,24.728,42.459,47.53,48.326
		c16.609,39.624,55.759,67.46,101.414,67.46c60.706,0,109.918-49.212,109.918-109.918c0-3.724-0.188-7.403-0.549-11.031
		c13.355-8.202,24.612-19.108,33.199-31.792c14.663,20.788,38.846,34.38,66.219,34.38c44.735,0,81-36.265,81-81
		C865,351.765,828.735,315.5,784,315.5z"/>
	<linearGradient id="middle-right-clouds_3_" gradientUnits="userSpaceOnUse" x1="612.5" y1="766.3625" x2="612.5" y2="558.3625">
		<stop  offset="0" style="stop-color:#B0DEFE"/>
		<stop  offset="0.1682" style="stop-color:#9DC5E7"/>
		<stop  offset="0.738" style="stop-color:#62749F"/>
		<stop  offset="0.999" style="stop-color:#4A5482"/>
	</linearGradient>
	<path id="middle-right-clouds_1_" class="st32" d="M667,357.5c-37.555,0-68,30.445-68,68c0,7.043,1.071,13.835,3.058,20.224
		C590.189,435.614,574.813,429.5,558,429.5c-37.555,0-68,30.445-68,68s30.445,68,68,68s68-30.445,68-68
		c0-7.043-1.071-13.835-3.058-20.224C634.811,487.386,650.187,493.5,667,493.5c37.555,0,68-30.445,68-68S704.555,357.5,667,357.5z"
		/>
	
		<linearGradient id="bottom-right-clouds_3_" gradientUnits="userSpaceOnUse" x1="648.3145" y1="971.3979" x2="648.3145" y2="701.0829">
		<stop  offset="0" style="stop-color:#F8FDFF"/>
		<stop  offset="0.2822" style="stop-color:#C7CCDD"/>
		<stop  offset="0.7743" style="stop-color:#767CA6"/>
		<stop  offset="1" style="stop-color:#565C90"/>
	</linearGradient>
	<path id="bottom-right-clouds_1_" class="st33" d="M824.618,502.809c-8.7-43.384-50.923-71.501-94.307-62.8
		c-26.042,5.223-46.504,22.564-56.883,44.945c-1.901-0.485-3.822-0.91-5.758-1.282c-20.089-15.742-46.069-24.015-73.459-21.166
		c-52.253,5.437-91.163,49.419-91.444,100.77c-24.105,18.1-37.065,49.015-30.742,80.543c8.774,43.752,51.355,72.107,95.108,63.333
		c20.731-4.157,37.932-15.958,49.438-31.824c16.145,5.574,33.93,7.08,51.888,3.479c41.299-8.282,71.42-41.052,78.35-80.165
		c4.956-0.051,9.972-0.515,15.011-1.526C805.201,588.416,833.318,546.193,824.618,502.809z"/>
	<linearGradient id="top-left-clouds_3_" gradientUnits="userSpaceOnUse" x1="246.6731" y1="888.2675" x2="246.6731" y2="597.2073">
		<stop  offset="0" style="stop-color:#C6E7FD"/>
		<stop  offset="0.3349" style="stop-color:#91A8C8"/>
		<stop  offset="0.7908" style="stop-color:#4E5783"/>
		<stop  offset="1" style="stop-color:#333768"/>
	</linearGradient>
	<path id="top-left-clouds_1_" class="st34" d="M427.116,414.882c-22.915-0.653-44.032,7.505-60.113,21.396
		c-3.292-73.993-63.204-133.988-138.42-136.131c-42.375-1.207-80.94,16.21-107.897,44.809
		c-13.906-10.163-30.918-16.376-49.436-16.903c-48.665-1.386-89.239,36.941-90.625,85.605
		c-1.386,48.665,36.941,89.239,85.605,90.625c9.687,0.276,19.044-1.045,27.845-3.685c21.601,48.624,69.648,83.154,126.383,84.77
		c48.766,1.389,92.493-21.878,119.273-58.484c10.161,36.145,42.855,63.102,82.365,64.227c48.664,1.386,89.239-36.941,90.625-85.605
		C514.107,456.843,475.78,416.268,427.116,414.882z"/>
	<path id="bottom-left-clouds_1_" class="st35" d="M422.873,538.817c-12.006-0.669-23.58,1.12-34.234,4.926
		c0.548-2.486,0.909-5.046,1.056-7.671c1.496-26.844-19.052-49.819-45.897-51.316c-17.778-0.991-33.815,7.72-43.084,21.491
		c0.348-2.442,0.649-4.902,0.789-7.411c2.632-47.214-33.509-87.621-80.723-90.253s-87.621,33.509-90.253,80.723
		c-0.045,0.8,0.01,1.581-0.012,2.377c-15.208-24.884-41.972-42.137-73.293-43.883c-50.647-2.823-93.994,35.946-96.817,86.594
		c-2.823,50.647,35.946,93.994,86.594,96.817c50.647,2.823,93.994-35.946,96.817-86.593c0.083-1.494,0.124-2.98,0.136-4.461
		c14.328,22.363,38.755,37.812,67.299,39.403c35.073,1.955,66.356-17.509,81.222-46.991c-0.436,26.009,19.707,47.941,45.907,49.401
		c1.405,0.078,2.793,0.074,4.173,0.03c-6.779,11.583-11.004,24.892-11.802,39.214c-2.686,48.192,34.204,89.438,82.396,92.124
		c48.193,2.686,89.438-34.204,92.124-82.396C507.955,582.748,471.065,541.503,422.873,538.817z"/>
</g>
</svg>
