<?xml version="1.0" encoding="utf-8"?>
<!-- Generator: Adobe Illustrator 24.0.1, SVG Export Plug-In . SVG Version: 6.00 Build 0)  -->
<svg version="1.1" id="Layer_1" xmlns="http://www.w3.org/2000/svg" xmlns:xlink="http://www.w3.org/1999/xlink" x="0px" y="0px"
	 viewBox="0 0 599.248 391.258" style="enable-background:new 0 0 599.248 391.258;" xml:space="preserve">
<style type="text/css">
	.st0{fill:#727272;}
	.st1{fill:#FFFFFF;stroke:#727272;stroke-width:1.7816;stroke-miterlimit:10;}
	.st2{fill:none;stroke:#727272;stroke-width:0.75;stroke-miterlimit:10;}
	.st3{fill:#373737;}
	.st4{fill:#282828;}
	.st5{fill:#CECECE;}
	.st6{fill:#777777;}
	.st7{display:none;fill:#373737;}
</style>
<rect id="rail" x="-4.495" y="367.367" class="st0" width="610.517" height="12"/>
<g id="railwood">
	<path class="st1" d="M21.882,389.255H12.39c-2.299,0-4.162-1.863-4.162-4.162v-9.492c0-2.299,1.863-4.162,4.162-4.162h9.492
		c2.299,0,4.162,1.863,4.162,4.162v9.492C26.044,387.392,24.181,389.255,21.882,389.255z"/>
	<path class="st1" d="M92.882,389.255H83.39c-2.299,0-4.162-1.863-4.162-4.162v-9.492c0-2.299,1.863-4.162,4.162-4.162h9.492
		c2.299,0,4.162,1.863,4.162,4.162v9.492C97.044,387.392,95.181,389.255,92.882,389.255z"/>
	<path class="st1" d="M163.882,389.255h-9.492c-2.299,0-4.162-1.863-4.162-4.162v-9.492c0-2.299,1.863-4.162,4.162-4.162h9.492
		c2.299,0,4.162,1.863,4.162,4.162v9.492C168.044,387.392,166.181,389.255,163.882,389.255z"/>
	<path class="st1" d="M234.882,389.255h-9.492c-2.299,0-4.162-1.863-4.162-4.162v-9.492c0-2.299,1.863-4.162,4.162-4.162h9.492
		c2.299,0,4.162,1.863,4.162,4.162v9.492C239.044,387.392,237.181,389.255,234.882,389.255z"/>
	<path class="st1" d="M305.882,389.255h-9.492c-2.299,0-4.162-1.863-4.162-4.162v-9.492c0-2.299,1.863-4.162,4.162-4.162h9.492
		c2.299,0,4.162,1.863,4.162,4.162v9.492C310.044,387.392,308.181,389.255,305.882,389.255z"/>
	<path class="st1" d="M376.882,389.255h-9.492c-2.299,0-4.162-1.863-4.162-4.162v-9.492c0-2.299,1.863-4.162,4.162-4.162h9.492
		c2.299,0,4.162,1.863,4.162,4.162v9.492C381.044,387.392,379.181,389.255,376.882,389.255z"/>
	<path class="st1" d="M447.882,389.255h-9.492c-2.299,0-4.162-1.863-4.162-4.162v-9.492c0-2.299,1.863-4.162,4.162-4.162h9.492
		c2.299,0,4.162,1.863,4.162,4.162v9.492C452.044,387.392,450.181,389.255,447.882,389.255z"/>
	<path class="st1" d="M518.882,389.255h-9.492c-2.299,0-4.162-1.863-4.162-4.162v-9.492c0-2.299,1.863-4.162,4.162-4.162h9.492
		c2.299,0,4.162,1.863,4.162,4.162v9.492C523.044,387.392,521.181,389.255,518.882,389.255z"/>
	<path class="st1" d="M589.882,389.255h-9.492c-2.299,0-4.162-1.863-4.162-4.162v-9.492c0-2.299,1.863-4.162,4.162-4.162h9.492
		c2.299,0,4.162,1.863,4.162,4.162v9.492C594.044,387.392,592.181,389.255,589.882,389.255z"/>
	<path class="st1" d="M660.882,389.255h-9.492c-2.299,0-4.162-1.863-4.162-4.162v-9.492c0-2.299,1.863-4.162,4.162-4.162h9.492
		c2.299,0,4.162,1.863,4.162,4.162v9.492C665.044,387.392,663.181,389.255,660.882,389.255z"/>
	<path class="st1" d="M731.882,389.255h-9.492c-2.299,0-4.162-1.863-4.162-4.162v-9.492c0-2.299,1.863-4.162,4.162-4.162h9.492
		c2.299,0,4.162,1.863,4.162,4.162v9.492C736.044,387.392,734.181,389.255,731.882,389.255z"/>
	<path class="st1" d="M802.882,389.255h-9.492c-2.299,0-4.162-1.863-4.162-4.162v-9.492c0-2.299,1.863-4.162,4.162-4.162h9.492
		c2.299,0,4.162,1.863,4.162,4.162v9.492C807.044,387.392,805.181,389.255,802.882,389.255z"/>
	<path class="st1" d="M873.882,389.255h-9.492c-2.299,0-4.162-1.863-4.162-4.162v-9.492c0-2.299,1.863-4.162,4.162-4.162h9.492
		c2.299,0,4.162,1.863,4.162,4.162v9.492C878.044,387.392,876.181,389.255,873.882,389.255z"/>
	<path class="st1" d="M944.882,389.255h-9.492c-2.299,0-4.162-1.863-4.162-4.162v-9.492c0-2.299,1.863-4.162,4.162-4.162h9.492
		c2.299,0,4.162,1.863,4.162,4.162v9.492C949.044,387.392,947.181,389.255,944.882,389.255z"/>
	<path class="st1" d="M1015.882,389.255h-9.492c-2.299,0-4.162-1.863-4.162-4.162v-9.492c0-2.299,1.863-4.162,4.162-4.162h9.492
		c2.299,0,4.162,1.863,4.162,4.162v9.492C1020.044,387.392,1018.181,389.255,1015.882,389.255z"/>
	<path class="st1" d="M1086.882,389.255h-9.492c-2.299,0-4.162-1.863-4.162-4.162v-9.492c0-2.299,1.863-4.162,4.162-4.162h9.492
		c2.299,0,4.162,1.863,4.162,4.162v9.492C1091.044,387.392,1089.181,389.255,1086.882,389.255z"/>
	<path class="st1" d="M1157.882,389.255h-9.492c-2.299,0-4.162-1.863-4.162-4.162v-9.492c0-2.299,1.863-4.162,4.162-4.162h9.492
		c2.299,0,4.162,1.863,4.162,4.162v9.492C1162.044,387.392,1160.181,389.255,1157.882,389.255z"/>
	<path class="st1" d="M1228.882,389.255h-9.492c-2.299,0-4.162-1.863-4.162-4.162v-9.492c0-2.299,1.863-4.162,4.162-4.162h9.492
		c2.299,0,4.162,1.863,4.162,4.162v9.492C1233.044,387.392,1231.181,389.255,1228.882,389.255z"/>
</g>
<rect id="rail-clip-path" x="4.022" y="359.755" class="st2" width="593" height="36"/>
<path class="st3" d="M207.525,81.72H55.09c-2.78,0-5.054-2.274-5.054-5.054V66.646c0-2.78,2.274-5.054,5.054-5.054h152.434
	c2.78,0,5.054,2.274,5.054,5.054v10.019C212.579,79.445,210.304,81.72,207.525,81.72z"/>
<g id="smoke">
	<circle class="st4" cx="355.409" cy="16.954" r="11.936"/>
	<path class="st5" d="M361.856,7.251c-10.159-3.886-19.423,5.379-16.519,15.425C339.903,11.587,352.017,1.368,361.856,7.251z"/>
</g>
<path id="front-inner" class="st6" d="M359.672,288.206c-20.127,0-36.437,16.309-36.437,36.437s16.309,36.437,36.437,36.437
	c20.128,0,36.437-16.309,36.437-36.437S379.8,288.206,359.672,288.206z M359.672,352.69c-15.493,0-28.047-12.554-28.047-28.047
	s12.554-28.047,28.047-28.047c15.493,0,28.048,12.554,28.048,28.047S375.166,352.69,359.672,352.69z"/>
<path id="front-wheel" class="st3" d="M359.672,279.028c-25.195,0-45.615,20.42-45.615,45.615s20.42,45.615,45.615,45.615
	c25.195,0,45.615-20.42,45.615-45.615S384.867,279.028,359.672,279.028z M359.672,359.097c-19.032,0-34.454-15.422-34.454-34.454
	c0-19.032,15.422-34.454,34.454-34.454c19.032,0,34.454,15.422,34.454,34.454C394.126,343.675,378.705,359.097,359.672,359.097z"/>
<path id="middle-inner_3_" class="st6" d="M248.061,288.206c-20.127,0-36.437,16.309-36.437,36.437s16.309,36.437,36.437,36.437
	c20.127,0,36.437-16.309,36.437-36.437S268.189,288.206,248.061,288.206z M248.061,352.69c-15.493,0-28.047-12.554-28.047-28.047
	s12.554-28.047,28.047-28.047c15.493,0,28.048,12.554,28.048,28.047S263.555,352.69,248.061,352.69z"/>
<path id="middle-wheel" class="st3" d="M248.061,279.028c-25.195,0-45.615,20.42-45.615,45.615s20.42,45.615,45.615,45.615
	s45.615-20.42,45.615-45.615S273.256,279.028,248.061,279.028z M248.061,359.097c-19.032,0-34.454-15.422-34.454-34.454
	c0-19.032,15.422-34.454,34.454-34.454s34.454,15.422,34.454,34.454C282.515,343.675,267.093,359.097,248.061,359.097z"/>
<path id="top-blower" class="st3" d="M287.368,125.173v-5.798h-6.308v-14.558h-24.263v14.558h-2.186
	c3.263,1.185,9.615,3.492,15.929,5.775C275.29,125.183,282.332,125.215,287.368,125.173z"/>
<path id="bottom-blower" class="st3" d="M287.368,131.183c-4.564-1.572-25.762-9.266-32.758-11.808h-4.123v45.615h7.279v36.88
	h22.322v-36.88h7.279V131.183z"/>
<polygon id="bottom-stack" class="st3" points="297.073,39.792 335.894,138.786 377.627,138.786 415.478,39.792 "/>
<polygon id="top-stack" class="st3" points="297.073,33.969 415.478,33.969 397.038,0 317.454,0 "/>
<g id="body">
	<g>
		<path class="st3" d="M571.248,347.936L446.05,279.028h-18.925v-9.705h4.367c5.901,0,10.676-4.775,10.676-10.676v-23.293
			c0-5.901-4.775-10.676-10.676-10.676h-4.367v-13.587h-0.049c-0.505-7.59-6.794-13.587-14.509-13.587h-34.939v-54.835h-41.733
			v54.835H219.431c-7.716,0-14.005,5.998-14.509,13.587h-10.948V86.484H67.882v124.607H53.47c0-4.824-3.911-8.735-8.735-8.735
			S36,206.267,36,211.091v95.297c0,5.018,1.873,9.599,4.969,13.073c-1.029-4.901-1.572-9.987-1.572-15.198
			c0-40.733,33.027-73.76,73.76-73.76s73.76,33.027,73.76,73.76c0,7.599-1.155,14.936-3.29,21.837h11.074
			c-0.01-0.485-0.019-0.971-0.019-1.456c0-29.485,23.895-53.379,53.379-53.379s53.379,23.895,53.379,53.379
			c0,0.485-0.01,0.971-0.019,1.456h4.892c-0.01-0.485-0.019-0.971-0.019-1.456c0-29.485,23.895-53.379,53.379-53.379
			c24.544,0,45.2,16.563,51.438,39.119v37.553H571.248z M183.696,202.298H78.16V96.762h105.536V202.298z"/>
		<rect x="411.111" y="353.759" class="st3" width="160.138" height="11.646"/>
	</g>
</g>
<g id="rear_wheel">
	<g>
		<path id="extra_8_" class="st7" d="M113.157,238.266c-36.453,0-65.996,29.543-65.996,65.996s29.543,65.996,65.996,65.996
			s65.996-29.543,65.996-65.996S149.61,238.266,113.157,238.266z M168.814,300.386l-46.288-0.014l32.736-32.716
			C162.995,276.544,167.957,287.897,168.814,300.386z M117.046,248.606c12.489,0.86,23.841,5.824,32.727,13.559l-32.74,32.721
			L117.046,248.606z M108.79,302.451l2.559-2.557l3.618,0.001l2.557,2.559l-0.001,3.619l-2.559,2.557l-3.618-0.001l-2.557-2.559
			L108.79,302.451z M76.551,262.157c8.887-7.733,20.241-12.695,32.73-13.552l-0.014,46.288L76.551,262.157z M109.282,313.637
			l-0.014,46.28c-12.489-0.86-23.841-5.824-32.727-13.559L109.282,313.637z M117.046,313.63l32.717,32.736
			c-8.887,7.733-20.241,12.695-32.73,13.552L117.046,313.63z M71.061,267.646l32.721,32.741l-46.281-0.014
			C58.362,287.884,63.326,276.532,71.061,267.646z M57.501,308.137l46.288,0.014l-32.736,32.716
			C63.319,331.98,58.358,320.627,57.501,308.137z M155.253,340.878l-32.721-32.741l46.281,0.014
			C167.953,320.64,162.989,331.992,155.253,340.878z"/>
		<g id="spokes_9_">
			<g>
				<path class="st6" d="M113.157,245.892c-32.185,0-58.37,26.185-58.37,58.371c0,32.185,26.185,58.37,58.37,58.37
					c32.186,0,58.37-26.185,58.37-58.37C171.527,272.076,145.343,245.892,113.157,245.892z M162.867,300.18l-39.847-0.012
					l28.166-28.149C157.748,279.748,161.996,289.491,162.867,300.18z M117.248,254.553c10.689,0.873,20.431,5.123,28.158,11.687
					l-28.17,28.153L117.248,254.553z M108.56,302.356l2.694-2.692l3.809,0.001l2.692,2.694l-0.001,3.809l-2.694,2.692l-3.809-0.001
					l-2.692-2.694L108.56,302.356z M80.914,266.234c7.729-6.563,17.472-10.812,28.161-11.682l-0.012,39.848L80.914,266.234z
					 M109.078,314.131l-0.012,39.84c-10.689-0.872-20.431-5.122-28.159-11.687L109.078,314.131z M117.251,314.124l28.149,28.166
					c-7.729,6.563-17.472,10.811-28.161,11.682L117.251,314.124z M75.135,272.012l28.154,28.17l-39.84-0.012
					C64.321,289.482,68.571,279.74,75.135,272.012z M63.448,308.344l39.847,0.012l-28.166,28.149
					C68.566,328.776,64.318,319.033,63.448,308.344z M151.18,336.512l-28.154-28.171l39.841,0.012
					C161.994,319.042,157.744,328.784,151.18,336.512z"/>
			</g>
		</g>
		<path id="outter_8_" class="st3" d="M113.157,238.266c-36.453,0-65.996,29.543-65.996,65.996s29.543,65.996,65.996,65.996
			s65.996-29.543,65.996-65.996S149.61,238.266,113.157,238.266z M113.157,361.08c-31.329,0-56.817-25.488-56.817-56.817
			c0-31.33,25.488-56.818,56.817-56.818c31.33,0,56.818,25.488,56.818,56.818C169.975,335.591,144.487,361.08,113.157,361.08z"/>
		<g>
			<circle class="st6" cx="113.157" cy="304.262" r="19.896"/>
		</g>
	</g>
</g>
<path id="axle" class="st3" d="M393.202,319.235h-118.67c-1.09,0-1.99,1.25-1.99,2.77v5.27c0,1.53,0.9,2.77,1.99,2.77h118.67
	c1.09,0,1.99-1.24,1.99-2.77v-5.27C395.192,320.485,394.292,319.235,393.202,319.235z M278.482,327.605c-1.71,0-3.09-1.38-3.09-3.09
	c0-1.71,1.38-3.1,3.09-3.1c1.71,0,3.1,1.39,3.1,3.1C281.582,326.225,280.192,327.605,278.482,327.605z M390.282,327.605
	c-1.71,0-3.09-1.38-3.09-3.09c0-1.71,1.38-3.1,3.09-3.1c1.71,0,3.1,1.39,3.1,3.1C393.382,326.225,391.992,327.605,390.282,327.605z"
	/>
<path class="st3" d="M113.157,304.262"/>
</svg>
